<svg width="19" height="27" viewBox="0 0 19 27" fill="none" xmlns="http://www.w3.org/2000/svg">
<path d="M17 9C17.8395 8.37035 18.4597 7.49252 18.7726 6.49084C19.0855 5.48916 19.0753 4.41442 18.7434 3.41886C18.4116 2.4233 17.7749 1.55739 16.9236 0.943789C16.0722 0.330187 15.0494 0 14 0H5.00001C3.9506 0 2.92779 0.330187 2.07646 0.943789C1.22513 1.55739 0.588446 2.4233 0.256593 3.41886C-0.0752603 4.41442 -0.0854592 5.48916 0.227442 6.49084C0.540342 7.49252 1.16048 8.37035 2.00001 9C1.36436 9.47637 0.851357 10.0973 0.50349 10.8115C0.155624 11.5256 -0.017093 12.3123 -0.000354458 13.1065C0.0163841 13.9006 0.222096 14.6794 0.599743 15.3782C0.97739 16.077 1.5161 16.6758 2.17126 17.125C1.42605 17.6916 0.837794 18.439 0.462176 19.2964C0.0865588 20.1539 -0.0639831 21.093 0.0248049 22.0249C0.113593 22.9569 0.438772 23.8507 0.969552 24.6218C1.50033 25.3929 2.21915 26.0157 3.05793 26.4314C3.89672 26.8471 4.82772 27.0417 5.76278 26.997C6.69783 26.9523 7.606 26.6696 8.40129 26.1758C9.19657 25.682 9.85266 24.9934 10.3074 24.1751C10.7622 23.3569 11.0006 22.4361 11 21.5V17C12.0609 17.7956 13.3944 18.1373 14.7071 17.9497C16.0199 17.7622 17.2044 17.0609 18 16C18.7957 14.9391 19.1373 13.6056 18.9498 12.2929C18.7622 10.9801 18.0609 9.79565 17 9ZM17 5C17 5.79565 16.6839 6.55871 16.1213 7.12132C15.5587 7.68393 14.7957 8 14 8H11V2H14C14.7957 2 15.5587 2.31607 16.1213 2.87868C16.6839 3.44129 17 4.20435 17 5ZM2.00001 5C2.00001 4.20435 2.31608 3.44129 2.87869 2.87868C3.4413 2.31607 4.20436 2 5.00001 2H9.00001V8H5.00001C4.20436 8 3.4413 7.68393 2.87869 7.12132C2.31608 6.55871 2.00001 5.79565 2.00001 5ZM5.00001 16C4.20436 16 3.4413 15.6839 2.87869 15.1213C2.31608 14.5587 2.00001 13.7956 2.00001 13C2.00001 12.2044 2.31608 11.4413 2.87869 10.8787C3.4413 10.3161 4.20436 10 5.00001 10H9.00001V16H5.00001ZM9.00001 21.5C9.00001 22.1922 8.79474 22.8689 8.41015 23.4445C8.02557 24.0201 7.47894 24.4687 6.8394 24.7336C6.19986 24.9985 5.49613 25.0678 4.81719 24.9327C4.13826 24.7977 3.51462 24.4644 3.02514 23.9749C2.53565 23.4854 2.20231 22.8617 2.06726 22.1828C1.93221 21.5039 2.00152 20.8001 2.26643 20.1606C2.53134 19.5211 2.97994 18.9744 3.55551 18.5899C4.13109 18.2053 4.80778 18 5.50001 18H9.00001V21.5ZM14 16C13.4067 16 12.8266 15.8241 12.3333 15.4944C11.84 15.1648 11.4554 14.6962 11.2284 14.1481C11.0013 13.5999 10.9419 12.9967 11.0577 12.4147C11.1734 11.8328 11.4591 11.2982 11.8787 10.8787C12.2982 10.4591 12.8328 10.1734 13.4147 10.0576C13.9967 9.94189 14.5999 10.0013 15.1481 10.2284C15.6962 10.4554 16.1648 10.8399 16.4944 11.3333C16.8241 11.8266 17 12.4067 17 13C17 13.7956 16.6839 14.5587 16.1213 15.1213C15.5587 15.6839 14.7957 16 14 16Z" fill="black"/>
</svg>
