<?xml version="1.0" standalone="no"?>
<!DOCTYPE svg PUBLIC "-//W3C//DTD SVG 1.1//EN" "http://www.w3.org/Graphics/SVG/1.1/DTD/svg11.dtd">
<svg xmlns="http://www.w3.org/2000/svg" version="1.1" width="1536" height="1024">
<path d="M 1024,428 L 1019,433 L 1018,433 L 1014,437 L 1013,437 L 1008,442 L 1007,442 L 1002,447 L 1001,447 L 997,451 L 996,451 L 992,455 L 991,455 L 987,459 L 986,459 L 981,464 L 980,464 L 977,467 L 976,467 L 973,470 L 973,482 L 974,483 L 974,508 L 973,509 L 973,522 L 972,523 L 972,529 L 971,530 L 971,536 L 970,537 L 970,542 L 975,547 L 975,548 L 987,560 L 987,561 L 997,571 L 997,572 L 1007,582 L 1007,583 L 1015,591 L 1015,590 L 1016,589 L 1016,587 L 1017,586 L 1017,584 L 1018,583 L 1018,581 L 1019,580 L 1019,578 L 1020,577 L 1020,574 L 1021,573 L 1021,571 L 1022,570 L 1022,567 L 1023,566 L 1023,563 L 1024,562 L 1024,559 L 1025,558 L 1025,554 L 1026,553 L 1026,548 L 1027,547 L 1027,541 L 1028,540 L 1028,535 L 1029,534 L 1029,526 L 1030,525 L 1030,511 L 1031,510 L 1031,484 L 1030,483 L 1030,467 L 1029,466 L 1029,457 L 1028,456 L 1028,449 L 1027,448 L 1027,443 L 1026,442 L 1026,437 L 1025,436 L 1025,431 L 1024,430 Z" fill="black" stroke="none"/>
<path d="M 1106,359 L 1092,373 L 1091,373 L 1084,380 L 1083,380 L 1078,385 L 1077,385 L 1074,388 L 1073,388 L 1069,392 L 1068,392 L 1063,397 L 1062,397 L 1058,401 L 1057,401 L 1053,405 L 1052,405 L 1050,407 L 1050,408 L 1051,409 L 1051,412 L 1052,413 L 1052,415 L 1053,416 L 1053,420 L 1054,421 L 1054,426 L 1055,427 L 1055,431 L 1056,432 L 1056,436 L 1057,437 L 1057,442 L 1058,443 L 1058,449 L 1059,450 L 1059,458 L 1060,459 L 1060,467 L 1061,468 L 1061,482 L 1062,483 L 1062,506 L 1061,507 L 1061,522 L 1060,523 L 1060,533 L 1059,534 L 1059,539 L 1058,540 L 1058,546 L 1057,547 L 1057,552 L 1056,553 L 1056,557 L 1055,558 L 1055,562 L 1054,563 L 1054,566 L 1053,567 L 1053,571 L 1052,572 L 1052,575 L 1051,576 L 1051,579 L 1050,580 L 1050,583 L 1049,584 L 1049,586 L 1048,587 L 1048,589 L 1047,590 L 1047,593 L 1046,594 L 1046,596 L 1045,597 L 1045,599 L 1044,600 L 1044,602 L 1043,603 L 1043,605 L 1042,606 L 1042,608 L 1041,609 L 1041,611 L 1040,612 L 1040,613 L 1039,614 L 1039,616 L 1038,617 L 1048,627 L 1048,628 L 1056,636 L 1056,637 L 1067,648 L 1067,649 L 1077,659 L 1077,660 L 1087,670 L 1087,671 L 1096,680 L 1096,681 L 1105,690 L 1105,691 L 1113,699 L 1113,700 L 1115,702 L 1115,701 L 1116,700 L 1116,699 L 1117,698 L 1117,697 L 1118,696 L 1118,695 L 1119,694 L 1119,693 L 1120,692 L 1120,690 L 1121,689 L 1121,688 L 1122,687 L 1122,686 L 1123,685 L 1123,684 L 1124,683 L 1124,682 L 1125,681 L 1125,680 L 1126,679 L 1126,677 L 1127,676 L 1127,675 L 1128,674 L 1128,673 L 1129,672 L 1129,671 L 1130,670 L 1130,669 L 1131,668 L 1131,667 L 1132,666 L 1132,664 L 1133,663 L 1133,662 L 1134,661 L 1134,660 L 1135,659 L 1135,658 L 1136,657 L 1136,656 L 1137,655 L 1137,654 L 1138,653 L 1138,652 L 1139,651 L 1139,650 L 1140,649 L 1140,648 L 1141,647 L 1141,640 L 1137,636 L 1136,636 L 1135,635 L 1134,635 L 1131,632 L 1130,632 L 1128,630 L 1127,630 L 1125,628 L 1124,628 L 1122,626 L 1121,626 L 1118,623 L 1117,623 L 1115,621 L 1114,621 L 1112,619 L 1111,619 L 1109,617 L 1108,617 L 1105,614 L 1104,614 L 1102,612 L 1101,612 L 1098,609 L 1097,609 L 1094,606 L 1094,605 L 1095,604 L 1095,601 L 1096,600 L 1096,597 L 1097,596 L 1097,592 L 1098,591 L 1098,588 L 1099,587 L 1099,583 L 1100,582 L 1100,578 L 1101,577 L 1101,573 L 1102,572 L 1102,569 L 1103,568 L 1103,564 L 1104,563 L 1104,559 L 1105,558 L 1105,554 L 1106,553 L 1106,548 L 1107,547 L 1107,543 L 1108,542 L 1112,542 L 1113,541 L 1118,541 L 1119,540 L 1124,540 L 1125,539 L 1130,539 L 1131,538 L 1135,538 L 1136,537 L 1141,537 L 1142,536 L 1147,536 L 1148,535 L 1152,535 L 1153,534 L 1159,534 L 1160,533 L 1161,533 L 1162,532 L 1163,532 L 1167,528 L 1167,472 L 1166,471 L 1166,465 L 1165,464 L 1165,463 L 1164,462 L 1164,461 L 1163,460 L 1162,460 L 1161,459 L 1160,459 L 1159,458 L 1154,458 L 1153,457 L 1146,457 L 1145,456 L 1139,456 L 1138,455 L 1132,455 L 1131,454 L 1125,454 L 1124,453 L 1119,453 L 1118,452 L 1112,452 L 1111,451 L 1107,451 L 1106,450 L 1106,448 L 1105,447 L 1105,442 L 1104,441 L 1104,437 L 1103,436 L 1103,432 L 1102,431 L 1102,427 L 1101,426 L 1101,423 L 1100,422 L 1100,418 L 1099,417 L 1099,414 L 1098,413 L 1098,409 L 1097,408 L 1097,405 L 1096,404 L 1096,401 L 1095,400 L 1095,397 L 1094,396 L 1094,393 L 1093,392 L 1093,389 L 1092,388 L 1092,386 L 1098,380 L 1098,379 L 1103,374 L 1103,373 L 1108,368 L 1108,367 L 1109,366 L 1109,362 L 1108,361 L 1108,360 L 1107,359 Z" fill="black" stroke="none"/>
<path d="M 974,285 L 970,289 L 969,289 L 961,297 L 960,297 L 951,306 L 950,306 L 942,314 L 941,314 L 934,321 L 933,321 L 924,330 L 923,330 L 914,339 L 913,339 L 904,348 L 903,348 L 896,355 L 895,355 L 888,362 L 887,362 L 877,372 L 876,372 L 869,379 L 868,379 L 859,388 L 858,388 L 850,396 L 849,396 L 840,405 L 839,405 L 831,413 L 830,413 L 822,421 L 821,421 L 812,430 L 811,430 L 804,437 L 803,437 L 793,447 L 792,447 L 784,455 L 783,455 L 776,462 L 775,462 L 766,471 L 765,471 L 764,470 L 764,319 L 765,318 L 764,317 L 763,318 L 660,318 L 659,317 L 659,687 L 764,687 L 764,579 L 767,576 L 768,576 L 773,571 L 774,571 L 779,566 L 780,566 L 784,562 L 785,562 L 790,557 L 791,557 L 796,552 L 797,552 L 804,559 L 804,560 L 810,566 L 810,567 L 818,575 L 818,576 L 826,584 L 826,585 L 834,593 L 834,594 L 841,601 L 841,602 L 849,610 L 849,611 L 857,619 L 857,620 L 863,626 L 863,627 L 870,634 L 870,635 L 877,642 L 877,643 L 885,651 L 885,652 L 894,661 L 894,662 L 900,668 L 900,669 L 908,677 L 908,678 L 916,686 L 916,687 L 923,694 L 923,695 L 930,702 L 930,703 L 938,711 L 938,712 L 945,719 L 945,720 L 953,728 L 953,729 L 961,737 L 961,738 L 968,745 L 968,746 L 970,748 L 1130,748 L 1124,742 L 1124,741 L 1115,732 L 1115,731 L 1105,721 L 1105,720 L 1095,710 L 1095,709 L 1086,700 L 1086,699 L 1076,689 L 1076,688 L 1066,678 L 1066,677 L 1057,668 L 1057,667 L 1046,656 L 1046,655 L 1037,646 L 1037,645 L 1027,635 L 1027,634 L 1016,623 L 1016,622 L 1005,611 L 1005,610 L 996,601 L 996,600 L 986,590 L 986,589 L 975,578 L 975,577 L 965,567 L 965,566 L 953,554 L 953,553 L 943,543 L 943,542 L 934,533 L 934,532 L 922,520 L 922,519 L 912,509 L 912,508 L 904,500 L 904,499 L 907,496 L 908,496 L 912,492 L 913,492 L 917,488 L 918,488 L 922,484 L 923,484 L 927,480 L 928,480 L 932,476 L 933,476 L 938,471 L 939,471 L 943,467 L 944,467 L 948,463 L 949,463 L 953,459 L 954,459 L 958,455 L 959,455 L 963,451 L 964,451 L 968,447 L 969,447 L 973,443 L 974,443 L 978,439 L 979,439 L 984,434 L 985,434 L 989,430 L 990,430 L 993,427 L 994,427 L 999,422 L 1000,422 L 1004,418 L 1005,418 L 1009,414 L 1010,414 L 1014,410 L 1015,410 L 1019,406 L 1020,406 L 1024,402 L 1025,402 L 1029,398 L 1030,398 L 1034,394 L 1035,394 L 1039,390 L 1040,390 L 1044,386 L 1045,386 L 1049,382 L 1050,382 L 1054,378 L 1055,378 L 1059,374 L 1060,374 L 1065,369 L 1066,369 L 1071,364 L 1072,364 L 1076,360 L 1077,360 L 1080,357 L 1081,357 L 1085,353 L 1086,353 L 1091,348 L 1092,348 L 1096,344 L 1097,344 L 1101,340 L 1102,340 L 1106,336 L 1107,336 L 1111,332 L 1112,332 L 1116,328 L 1117,328 L 1121,324 L 1122,324 L 1126,320 L 1127,320 L 1131,316 L 1132,316 L 1136,312 L 1137,312 L 1141,308 L 1142,308 L 1146,304 L 1147,304 L 1152,299 L 1153,299 L 1157,295 L 1158,295 L 1162,291 L 1163,291 L 1167,287 L 1168,287 L 1170,285 Z" fill="black" stroke="none"/>
<path d="M 725,46 L 724,47 L 706,47 L 705,48 L 704,48 L 700,52 L 700,54 L 699,55 L 699,58 L 698,59 L 698,62 L 697,63 L 697,66 L 696,67 L 696,70 L 695,71 L 695,74 L 694,75 L 694,78 L 693,79 L 693,82 L 692,83 L 692,87 L 691,88 L 691,91 L 690,92 L 690,96 L 689,97 L 689,100 L 688,101 L 688,106 L 686,108 L 682,108 L 681,109 L 676,109 L 675,110 L 671,110 L 670,111 L 666,111 L 665,112 L 662,112 L 661,113 L 657,113 L 656,114 L 653,114 L 652,115 L 649,115 L 648,116 L 645,116 L 644,117 L 641,117 L 640,118 L 638,118 L 637,119 L 634,119 L 633,120 L 630,120 L 629,121 L 627,121 L 626,122 L 623,122 L 620,119 L 620,118 L 619,117 L 619,116 L 617,114 L 617,113 L 615,111 L 615,110 L 614,109 L 614,108 L 612,106 L 612,105 L 610,103 L 610,102 L 609,101 L 609,100 L 607,98 L 607,97 L 605,95 L 605,94 L 604,93 L 604,92 L 602,90 L 602,89 L 600,87 L 600,86 L 598,84 L 598,83 L 596,81 L 596,80 L 595,79 L 595,78 L 593,76 L 593,75 L 589,71 L 584,71 L 583,72 L 581,72 L 580,73 L 579,73 L 578,74 L 577,74 L 576,75 L 575,75 L 574,76 L 573,76 L 572,77 L 570,77 L 569,78 L 568,78 L 567,79 L 566,79 L 565,80 L 564,80 L 563,81 L 562,81 L 561,82 L 559,82 L 558,83 L 557,83 L 556,84 L 555,84 L 554,85 L 553,85 L 552,86 L 551,86 L 550,87 L 548,87 L 547,88 L 546,88 L 545,89 L 544,89 L 543,90 L 542,90 L 541,91 L 540,91 L 539,92 L 538,92 L 537,93 L 535,93 L 533,95 L 532,95 L 530,97 L 530,98 L 529,99 L 529,106 L 530,107 L 530,110 L 531,111 L 531,114 L 532,115 L 532,118 L 533,119 L 533,122 L 534,123 L 534,126 L 535,127 L 535,130 L 536,131 L 536,134 L 537,135 L 537,138 L 538,139 L 538,142 L 539,143 L 539,146 L 540,147 L 540,151 L 541,152 L 541,155 L 542,156 L 542,159 L 539,162 L 538,162 L 536,164 L 535,164 L 533,166 L 532,166 L 530,168 L 529,168 L 527,170 L 526,170 L 524,172 L 523,172 L 521,174 L 520,174 L 518,176 L 517,176 L 514,179 L 513,179 L 510,182 L 509,182 L 507,184 L 506,184 L 503,187 L 502,187 L 499,190 L 498,190 L 494,194 L 493,194 L 488,199 L 487,198 L 486,198 L 483,195 L 482,195 L 479,192 L 478,192 L 476,190 L 475,190 L 473,188 L 472,188 L 469,185 L 468,185 L 466,183 L 465,183 L 462,180 L 461,180 L 458,177 L 457,177 L 455,175 L 454,175 L 451,172 L 450,172 L 448,170 L 447,170 L 444,167 L 443,167 L 442,166 L 441,166 L 440,165 L 438,165 L 437,166 L 435,166 L 425,176 L 425,177 L 417,185 L 417,186 L 409,194 L 409,195 L 402,202 L 402,203 L 398,207 L 398,208 L 396,210 L 396,211 L 395,212 L 395,218 L 397,220 L 397,221 L 400,224 L 400,225 L 402,227 L 402,228 L 404,230 L 404,231 L 406,233 L 406,234 L 408,236 L 408,237 L 410,239 L 410,240 L 412,242 L 412,243 L 414,245 L 414,246 L 416,248 L 416,249 L 418,251 L 418,252 L 420,254 L 420,255 L 422,257 L 422,258 L 424,260 L 424,261 L 427,264 L 427,265 L 426,266 L 426,267 L 424,269 L 424,270 L 423,271 L 423,272 L 421,274 L 421,275 L 420,276 L 420,277 L 418,279 L 418,280 L 417,281 L 417,282 L 416,283 L 416,284 L 415,285 L 415,286 L 413,288 L 413,289 L 412,290 L 412,291 L 411,292 L 411,293 L 410,294 L 410,295 L 409,296 L 409,297 L 408,298 L 408,299 L 406,301 L 406,302 L 405,303 L 405,304 L 404,305 L 404,306 L 403,307 L 403,308 L 402,309 L 402,310 L 401,311 L 401,312 L 400,313 L 400,314 L 399,315 L 399,316 L 398,317 L 398,318 L 397,319 L 397,320 L 396,321 L 389,321 L 388,320 L 382,320 L 381,319 L 375,319 L 374,318 L 368,318 L 367,317 L 360,317 L 359,316 L 352,316 L 351,315 L 345,315 L 344,314 L 337,314 L 336,315 L 335,315 L 333,317 L 333,318 L 332,319 L 332,321 L 331,322 L 331,324 L 330,325 L 330,326 L 329,327 L 329,329 L 328,330 L 328,332 L 327,333 L 327,334 L 326,335 L 326,337 L 325,338 L 325,339 L 324,340 L 324,342 L 323,343 L 323,344 L 322,345 L 322,347 L 321,348 L 321,350 L 320,351 L 320,352 L 319,353 L 319,355 L 318,356 L 318,357 L 317,358 L 317,360 L 316,361 L 316,362 L 315,363 L 315,365 L 314,366 L 314,368 L 313,369 L 313,370 L 312,371 L 312,377 L 315,380 L 316,380 L 317,381 L 318,381 L 319,382 L 320,382 L 321,383 L 322,383 L 323,384 L 324,384 L 325,385 L 326,385 L 327,386 L 328,386 L 329,387 L 330,387 L 331,388 L 332,388 L 334,390 L 335,390 L 336,391 L 337,391 L 339,393 L 340,393 L 341,394 L 342,394 L 344,396 L 345,396 L 346,397 L 347,397 L 349,399 L 350,399 L 351,400 L 352,400 L 354,402 L 355,402 L 357,404 L 358,404 L 359,405 L 360,405 L 363,408 L 363,413 L 362,414 L 362,420 L 361,421 L 361,428 L 360,429 L 360,435 L 359,436 L 359,444 L 358,445 L 358,452 L 357,453 L 357,462 L 356,463 L 356,466 L 355,467 L 353,467 L 352,468 L 349,468 L 348,469 L 346,469 L 345,470 L 342,470 L 341,471 L 339,471 L 338,472 L 336,472 L 335,473 L 332,473 L 331,474 L 329,474 L 328,475 L 325,475 L 324,476 L 322,476 L 321,477 L 319,477 L 318,478 L 315,478 L 314,479 L 312,479 L 311,480 L 309,480 L 308,481 L 306,481 L 305,482 L 302,482 L 301,483 L 299,483 L 298,484 L 296,484 L 295,485 L 293,485 L 292,486 L 290,486 L 289,487 L 287,487 L 286,488 L 284,488 L 283,489 L 281,489 L 280,490 L 279,490 L 278,491 L 276,491 L 275,492 L 273,492 L 272,493 L 270,493 L 269,494 L 267,494 L 266,495 L 265,495 L 264,496 L 262,496 L 261,497 L 259,497 L 258,498 L 256,498 L 255,499 L 254,499 L 253,500 L 251,500 L 250,501 L 248,501 L 247,502 L 246,502 L 245,503 L 243,503 L 242,504 L 241,504 L 240,505 L 238,505 L 237,506 L 235,506 L 234,507 L 233,507 L 232,508 L 231,508 L 230,509 L 228,509 L 227,510 L 226,510 L 225,511 L 223,511 L 222,512 L 221,512 L 220,513 L 219,513 L 218,514 L 216,514 L 215,515 L 214,515 L 213,516 L 212,516 L 211,517 L 209,517 L 208,518 L 207,518 L 206,519 L 205,519 L 204,520 L 203,520 L 202,521 L 200,521 L 199,522 L 198,522 L 197,523 L 196,523 L 195,524 L 194,524 L 193,525 L 192,525 L 191,526 L 190,526 L 189,527 L 188,527 L 187,528 L 186,528 L 185,529 L 183,529 L 182,530 L 181,530 L 180,531 L 179,531 L 178,532 L 177,532 L 176,533 L 175,533 L 174,534 L 173,534 L 172,535 L 171,535 L 170,536 L 169,536 L 168,537 L 167,537 L 166,538 L 165,538 L 163,540 L 162,540 L 161,541 L 160,541 L 159,542 L 158,542 L 157,543 L 156,543 L 154,545 L 153,545 L 152,546 L 151,546 L 150,547 L 149,547 L 147,549 L 146,549 L 145,550 L 144,550 L 142,552 L 141,552 L 139,554 L 138,554 L 136,556 L 135,556 L 133,558 L 132,558 L 130,560 L 129,560 L 126,563 L 125,563 L 122,566 L 121,566 L 117,570 L 116,570 L 99,587 L 99,588 L 97,590 L 97,591 L 95,593 L 95,594 L 94,595 L 94,596 L 93,597 L 93,599 L 92,600 L 92,602 L 91,603 L 91,613 L 92,614 L 92,615 L 93,616 L 93,617 L 96,620 L 96,621 L 97,621 L 99,623 L 100,623 L 101,624 L 102,624 L 103,625 L 104,625 L 105,626 L 106,626 L 107,627 L 110,627 L 111,628 L 113,628 L 114,629 L 117,629 L 118,630 L 122,630 L 123,631 L 129,631 L 130,632 L 140,632 L 141,633 L 171,633 L 172,632 L 188,632 L 189,631 L 199,631 L 200,630 L 209,630 L 210,629 L 217,629 L 218,628 L 224,628 L 225,627 L 231,627 L 232,626 L 237,626 L 238,625 L 244,625 L 245,624 L 250,624 L 251,623 L 255,623 L 256,622 L 261,622 L 262,621 L 266,621 L 267,620 L 271,620 L 272,619 L 277,619 L 278,618 L 282,618 L 283,617 L 286,617 L 287,616 L 291,616 L 292,615 L 296,615 L 297,614 L 300,614 L 301,613 L 304,613 L 305,612 L 308,612 L 309,611 L 312,611 L 313,610 L 316,610 L 317,609 L 320,609 L 321,608 L 323,608 L 324,607 L 327,607 L 328,606 L 330,606 L 331,605 L 334,605 L 335,604 L 337,604 L 338,603 L 340,603 L 341,602 L 344,602 L 345,601 L 347,601 L 348,600 L 350,600 L 351,599 L 354,599 L 355,598 L 357,598 L 358,597 L 360,597 L 361,596 L 363,596 L 364,595 L 366,595 L 367,594 L 368,594 L 369,595 L 369,598 L 370,599 L 370,601 L 371,602 L 371,605 L 372,606 L 372,608 L 373,609 L 373,611 L 374,612 L 374,614 L 375,615 L 373,617 L 372,617 L 369,620 L 368,620 L 365,623 L 364,623 L 361,626 L 360,626 L 357,629 L 356,629 L 353,632 L 352,632 L 349,635 L 348,635 L 345,638 L 344,638 L 341,641 L 340,641 L 337,644 L 336,644 L 332,648 L 331,648 L 327,652 L 327,653 L 326,654 L 326,658 L 327,659 L 327,661 L 328,662 L 328,663 L 330,665 L 330,666 L 331,667 L 331,668 L 332,669 L 332,670 L 333,671 L 333,672 L 334,673 L 334,674 L 335,675 L 335,676 L 336,677 L 336,678 L 337,679 L 337,680 L 338,681 L 338,682 L 339,683 L 339,684 L 340,685 L 340,686 L 341,687 L 341,688 L 342,689 L 342,690 L 343,691 L 343,692 L 344,693 L 344,694 L 345,695 L 345,696 L 346,697 L 346,698 L 347,699 L 347,700 L 348,701 L 348,702 L 349,703 L 349,704 L 350,705 L 350,706 L 351,707 L 351,708 L 352,709 L 352,710 L 353,711 L 353,712 L 356,715 L 357,715 L 358,716 L 362,716 L 363,715 L 365,715 L 366,714 L 367,714 L 368,713 L 370,713 L 371,712 L 373,712 L 374,711 L 376,711 L 377,710 L 379,710 L 380,709 L 381,709 L 382,708 L 384,708 L 385,707 L 387,707 L 388,706 L 390,706 L 391,705 L 393,705 L 394,704 L 395,704 L 396,703 L 398,703 L 399,702 L 401,702 L 402,701 L 404,701 L 405,700 L 407,700 L 408,699 L 409,699 L 411,701 L 411,702 L 414,705 L 414,706 L 416,708 L 416,709 L 419,712 L 419,713 L 422,716 L 422,717 L 425,720 L 425,721 L 427,723 L 427,724 L 430,727 L 430,728 L 433,731 L 433,732 L 437,736 L 437,737 L 440,740 L 440,741 L 444,745 L 444,746 L 449,751 L 447,753 L 447,754 L 445,756 L 445,757 L 443,759 L 443,760 L 442,761 L 442,762 L 440,764 L 440,765 L 439,766 L 439,767 L 437,769 L 437,770 L 435,772 L 435,773 L 434,774 L 434,775 L 432,777 L 432,778 L 431,779 L 431,780 L 429,782 L 429,783 L 427,785 L 427,786 L 425,788 L 425,789 L 423,791 L 423,792 L 421,794 L 421,795 L 419,797 L 419,798 L 418,799 L 418,804 L 419,805 L 419,806 L 424,811 L 425,811 L 432,818 L 433,818 L 444,829 L 445,829 L 454,838 L 455,838 L 463,846 L 464,846 L 465,847 L 470,847 L 473,844 L 474,844 L 477,841 L 478,841 L 481,838 L 482,838 L 486,834 L 487,834 L 490,831 L 491,831 L 495,827 L 496,827 L 499,824 L 500,824 L 504,820 L 505,820 L 509,816 L 510,816 L 513,813 L 514,813 L 515,812 L 517,814 L 518,814 L 520,816 L 521,816 L 523,818 L 524,818 L 527,821 L 528,821 L 530,823 L 531,823 L 533,825 L 534,825 L 536,827 L 537,827 L 538,828 L 539,828 L 541,830 L 542,830 L 543,831 L 544,831 L 546,833 L 547,833 L 548,834 L 549,834 L 551,836 L 552,836 L 553,837 L 554,837 L 556,839 L 557,839 L 558,840 L 559,840 L 560,841 L 561,841 L 562,842 L 563,842 L 565,844 L 566,844 L 567,845 L 567,846 L 566,847 L 566,853 L 565,854 L 565,860 L 564,861 L 564,867 L 563,868 L 563,874 L 562,875 L 562,881 L 561,882 L 561,888 L 560,889 L 560,895 L 559,896 L 559,903 L 563,907 L 564,907 L 565,908 L 566,908 L 567,909 L 569,909 L 570,910 L 572,910 L 573,911 L 575,911 L 576,912 L 578,912 L 579,913 L 582,913 L 583,914 L 585,914 L 586,915 L 588,915 L 589,916 L 591,916 L 592,917 L 594,917 L 595,918 L 597,918 L 598,919 L 600,919 L 601,920 L 604,920 L 605,921 L 607,921 L 608,922 L 610,922 L 611,923 L 613,923 L 614,924 L 621,924 L 622,923 L 623,923 L 624,922 L 624,921 L 625,920 L 625,919 L 626,918 L 626,917 L 627,916 L 627,915 L 629,913 L 629,912 L 630,911 L 630,910 L 631,909 L 631,908 L 632,907 L 632,906 L 634,904 L 634,903 L 635,902 L 635,901 L 637,899 L 637,898 L 638,897 L 638,896 L 639,895 L 639,894 L 641,892 L 641,891 L 642,890 L 642,889 L 643,888 L 643,887 L 645,885 L 645,884 L 646,883 L 646,882 L 647,881 L 647,880 L 649,878 L 649,877 L 651,875 L 653,875 L 654,876 L 659,876 L 660,877 L 664,877 L 665,878 L 670,878 L 671,879 L 677,879 L 678,880 L 685,880 L 686,881 L 691,881 L 692,882 L 692,885 L 693,886 L 693,891 L 694,892 L 694,898 L 695,899 L 695,905 L 696,906 L 696,912 L 697,913 L 697,919 L 698,920 L 698,926 L 699,927 L 699,933 L 700,934 L 700,937 L 704,941 L 705,941 L 706,942 L 727,942 L 728,943 L 745,943 L 746,942 L 747,943 L 748,942 L 764,942 L 765,941 L 766,941 L 768,939 L 768,938 L 769,937 L 769,933 L 770,932 L 770,925 L 771,924 L 771,920 L 772,919 L 772,914 L 773,913 L 773,907 L 774,906 L 774,901 L 775,900 L 775,894 L 776,893 L 776,888 L 777,887 L 777,883 L 778,882 L 783,882 L 784,881 L 788,881 L 789,880 L 794,880 L 795,879 L 800,879 L 801,878 L 804,878 L 805,877 L 809,877 L 810,876 L 814,876 L 815,875 L 817,875 L 818,874 L 819,875 L 819,876 L 820,877 L 820,878 L 822,880 L 822,881 L 823,882 L 823,883 L 824,884 L 824,885 L 825,886 L 825,887 L 826,888 L 826,889 L 827,890 L 827,891 L 828,892 L 828,893 L 829,894 L 829,895 L 830,896 L 830,897 L 831,898 L 831,899 L 832,900 L 832,901 L 833,902 L 833,903 L 834,904 L 834,905 L 835,906 L 835,907 L 836,908 L 836,909 L 837,910 L 837,911 L 838,912 L 838,913 L 839,914 L 839,915 L 840,916 L 840,917 L 841,918 L 841,920 L 842,921 L 842,922 L 845,925 L 846,925 L 847,926 L 851,926 L 852,925 L 854,925 L 855,924 L 858,924 L 859,923 L 861,923 L 862,922 L 864,922 L 865,921 L 867,921 L 868,920 L 870,920 L 871,919 L 873,919 L 874,918 L 876,918 L 877,917 L 879,917 L 880,916 L 882,916 L 883,915 L 885,915 L 886,914 L 888,914 L 889,913 L 891,913 L 892,912 L 894,912 L 895,911 L 897,911 L 898,910 L 899,910 L 900,909 L 902,909 L 903,908 L 904,908 L 908,904 L 908,894 L 907,893 L 907,887 L 906,886 L 906,881 L 905,880 L 905,874 L 904,873 L 904,867 L 903,866 L 903,860 L 902,859 L 902,852 L 901,851 L 901,847 L 900,846 L 902,844 L 903,844 L 904,843 L 905,843 L 907,841 L 908,841 L 909,840 L 910,840 L 912,838 L 913,838 L 914,837 L 915,837 L 916,836 L 917,836 L 918,835 L 919,835 L 921,833 L 922,833 L 923,832 L 924,832 L 926,830 L 927,830 L 928,829 L 929,829 L 931,827 L 932,827 L 933,826 L 934,826 L 936,824 L 937,824 L 939,822 L 940,822 L 942,820 L 943,820 L 945,818 L 946,818 L 949,815 L 950,815 L 952,813 L 956,817 L 957,817 L 961,821 L 962,821 L 965,824 L 966,824 L 970,828 L 971,828 L 974,831 L 975,831 L 979,835 L 980,835 L 984,839 L 985,839 L 991,845 L 992,845 L 995,848 L 1001,848 L 1002,847 L 1003,847 L 1009,841 L 1010,841 L 1016,835 L 1017,835 L 1023,829 L 1024,829 L 1030,823 L 1031,823 L 1037,817 L 1038,817 L 1044,811 L 1045,811 L 1045,810 L 1048,807 L 1048,801 L 1047,800 L 1047,799 L 1045,797 L 1045,796 L 1043,794 L 1043,793 L 1041,791 L 1041,790 L 1039,788 L 1039,787 L 1037,785 L 1037,784 L 1035,782 L 1035,781 L 1033,779 L 1033,778 L 1032,777 L 1032,776 L 1030,774 L 1030,773 L 1028,771 L 1028,770 L 1026,768 L 1026,767 L 1024,765 L 1024,764 L 958,764 L 952,758 L 952,757 L 948,753 L 943,758 L 942,758 L 938,762 L 937,762 L 934,765 L 933,765 L 930,768 L 929,768 L 926,771 L 925,771 L 923,773 L 922,773 L 919,776 L 918,776 L 916,778 L 915,778 L 914,779 L 913,779 L 911,781 L 910,781 L 908,783 L 907,783 L 905,785 L 904,785 L 903,786 L 902,786 L 901,787 L 900,787 L 898,789 L 897,789 L 896,790 L 895,790 L 894,791 L 893,791 L 892,792 L 891,792 L 889,794 L 888,794 L 887,795 L 886,795 L 885,796 L 884,796 L 883,797 L 882,797 L 881,798 L 880,798 L 879,799 L 878,799 L 877,800 L 876,800 L 875,801 L 874,801 L 873,802 L 872,802 L 871,803 L 870,803 L 869,804 L 868,804 L 867,805 L 865,805 L 864,806 L 863,806 L 862,807 L 861,807 L 860,808 L 858,808 L 857,809 L 856,809 L 855,810 L 853,810 L 852,811 L 851,811 L 850,812 L 848,812 L 847,813 L 845,813 L 844,814 L 842,814 L 841,815 L 839,815 L 838,816 L 836,816 L 835,817 L 833,817 L 832,818 L 830,818 L 829,819 L 826,819 L 825,820 L 823,820 L 822,821 L 819,821 L 818,822 L 815,822 L 814,823 L 811,823 L 810,824 L 806,824 L 805,825 L 802,825 L 801,826 L 797,826 L 796,827 L 792,827 L 791,828 L 786,828 L 785,829 L 779,829 L 778,830 L 771,830 L 770,831 L 762,831 L 761,832 L 746,832 L 745,833 L 723,833 L 722,832 L 706,832 L 705,831 L 697,831 L 696,830 L 689,830 L 688,829 L 682,829 L 681,828 L 676,828 L 675,827 L 671,827 L 670,826 L 666,826 L 665,825 L 661,825 L 660,824 L 657,824 L 656,823 L 653,823 L 652,822 L 650,822 L 649,821 L 646,821 L 645,820 L 642,820 L 641,819 L 639,819 L 638,818 L 636,818 L 635,817 L 633,817 L 632,816 L 630,816 L 629,815 L 627,815 L 626,814 L 624,814 L 623,813 L 621,813 L 620,812 L 619,812 L 618,811 L 616,811 L 615,810 L 614,810 L 613,809 L 611,809 L 610,808 L 609,808 L 608,807 L 607,807 L 606,806 L 605,806 L 604,805 L 602,805 L 601,804 L 600,804 L 599,803 L 598,803 L 597,802 L 596,802 L 595,801 L 594,801 L 593,800 L 591,800 L 590,799 L 589,799 L 587,797 L 586,797 L 585,796 L 584,796 L 583,795 L 582,795 L 581,794 L 580,794 L 579,793 L 578,793 L 577,792 L 576,792 L 575,791 L 574,791 L 572,789 L 571,789 L 570,788 L 569,788 L 567,786 L 566,786 L 565,785 L 564,785 L 562,783 L 561,783 L 559,781 L 558,781 L 557,780 L 556,780 L 554,778 L 553,778 L 551,776 L 550,776 L 547,773 L 546,773 L 544,771 L 543,771 L 540,768 L 539,768 L 536,765 L 535,765 L 531,761 L 530,761 L 525,756 L 524,756 L 519,751 L 518,751 L 490,723 L 490,722 L 483,715 L 483,714 L 478,709 L 478,708 L 475,705 L 475,704 L 472,701 L 472,700 L 469,697 L 469,696 L 466,693 L 466,692 L 464,690 L 464,689 L 462,687 L 462,686 L 460,684 L 460,683 L 458,681 L 458,680 L 456,678 L 456,677 L 455,676 L 455,675 L 453,673 L 453,672 L 452,671 L 452,670 L 450,668 L 450,667 L 449,666 L 449,665 L 448,664 L 448,663 L 447,662 L 447,661 L 445,659 L 445,658 L 444,657 L 444,656 L 443,655 L 443,654 L 442,653 L 442,652 L 441,651 L 441,650 L 440,649 L 440,648 L 439,647 L 439,646 L 438,645 L 438,644 L 437,643 L 437,642 L 436,641 L 436,640 L 435,639 L 435,637 L 434,636 L 434,635 L 433,634 L 433,633 L 432,632 L 432,630 L 431,629 L 431,628 L 430,627 L 430,626 L 429,625 L 429,623 L 428,622 L 428,621 L 427,620 L 427,618 L 426,617 L 426,615 L 425,614 L 425,613 L 424,612 L 424,610 L 423,609 L 423,607 L 422,606 L 422,604 L 421,603 L 421,601 L 420,600 L 420,598 L 419,597 L 419,594 L 418,593 L 418,591 L 417,590 L 417,587 L 416,586 L 416,583 L 415,582 L 415,580 L 414,579 L 414,578 L 415,577 L 417,577 L 418,576 L 420,576 L 421,575 L 422,575 L 423,574 L 426,574 L 427,573 L 429,573 L 430,572 L 432,572 L 433,571 L 435,571 L 436,570 L 438,570 L 439,569 L 441,569 L 442,568 L 443,569 L 443,572 L 444,573 L 444,576 L 445,577 L 445,579 L 446,580 L 446,583 L 447,584 L 447,586 L 448,587 L 448,589 L 449,590 L 449,592 L 450,593 L 450,595 L 451,596 L 451,598 L 452,599 L 452,601 L 453,602 L 453,604 L 454,605 L 454,607 L 455,608 L 455,609 L 456,610 L 456,612 L 457,613 L 457,614 L 458,615 L 458,617 L 459,618 L 459,619 L 460,620 L 460,622 L 461,623 L 461,624 L 462,625 L 462,626 L 463,627 L 463,628 L 464,629 L 464,630 L 465,631 L 465,632 L 466,633 L 466,634 L 467,635 L 467,636 L 468,637 L 468,638 L 469,639 L 469,640 L 470,641 L 470,642 L 471,643 L 471,644 L 472,645 L 472,646 L 473,647 L 473,648 L 474,649 L 474,650 L 476,652 L 476,653 L 477,654 L 477,655 L 479,657 L 479,658 L 480,659 L 480,660 L 482,662 L 482,663 L 483,664 L 483,665 L 485,667 L 485,668 L 487,670 L 487,671 L 489,673 L 489,674 L 492,677 L 492,678 L 494,680 L 494,681 L 497,684 L 497,685 L 500,688 L 500,689 L 505,694 L 505,695 L 510,700 L 510,701 L 520,711 L 520,712 L 529,721 L 530,721 L 540,731 L 541,731 L 546,736 L 547,736 L 551,740 L 552,740 L 555,743 L 556,743 L 559,746 L 560,746 L 562,748 L 563,748 L 565,750 L 566,750 L 569,753 L 570,753 L 572,755 L 573,755 L 574,756 L 575,756 L 577,758 L 578,758 L 580,760 L 581,760 L 582,761 L 583,761 L 585,763 L 586,763 L 587,764 L 588,764 L 589,765 L 590,765 L 592,767 L 593,767 L 594,768 L 595,768 L 596,769 L 597,769 L 598,770 L 599,770 L 600,771 L 601,771 L 602,772 L 603,772 L 604,773 L 605,773 L 606,774 L 607,774 L 608,775 L 609,775 L 610,776 L 612,776 L 613,777 L 614,777 L 615,778 L 616,778 L 617,779 L 619,779 L 620,780 L 621,780 L 622,781 L 624,781 L 625,782 L 626,782 L 627,783 L 629,783 L 630,784 L 631,784 L 632,785 L 634,785 L 635,786 L 637,786 L 638,787 L 640,787 L 641,788 L 643,788 L 644,789 L 646,789 L 647,790 L 649,790 L 650,791 L 653,791 L 654,792 L 656,792 L 657,793 L 660,793 L 661,794 L 664,794 L 665,795 L 668,795 L 669,796 L 673,796 L 674,797 L 677,797 L 678,798 L 683,798 L 684,799 L 689,799 L 690,800 L 696,800 L 697,801 L 705,801 L 706,802 L 720,802 L 721,803 L 745,803 L 746,802 L 762,802 L 763,801 L 771,801 L 772,800 L 778,800 L 779,799 L 783,799 L 784,798 L 789,798 L 790,797 L 794,797 L 795,796 L 799,796 L 800,795 L 803,795 L 804,794 L 807,794 L 808,793 L 811,793 L 812,792 L 815,792 L 816,791 L 818,791 L 819,790 L 822,790 L 823,789 L 825,789 L 826,788 L 828,788 L 829,787 L 831,787 L 832,786 L 834,786 L 835,785 L 837,785 L 838,784 L 840,784 L 841,783 L 842,783 L 843,782 L 845,782 L 846,781 L 847,781 L 848,780 L 849,780 L 850,779 L 852,779 L 853,778 L 854,778 L 855,777 L 857,777 L 858,776 L 859,776 L 860,775 L 861,775 L 862,774 L 863,774 L 864,773 L 865,773 L 866,772 L 867,772 L 868,771 L 869,771 L 870,770 L 871,770 L 872,769 L 873,769 L 874,768 L 875,768 L 877,766 L 878,766 L 879,765 L 880,765 L 881,764 L 882,764 L 883,763 L 884,763 L 886,761 L 887,761 L 888,760 L 889,760 L 891,758 L 892,758 L 893,757 L 894,757 L 896,755 L 897,755 L 899,753 L 900,753 L 902,751 L 903,751 L 905,749 L 906,749 L 909,746 L 910,746 L 913,743 L 914,743 L 917,740 L 918,740 L 922,736 L 923,736 L 929,730 L 920,721 L 920,720 L 913,713 L 913,712 L 906,705 L 906,704 L 898,696 L 898,695 L 891,688 L 891,687 L 890,686 L 888,688 L 887,688 L 883,692 L 882,692 L 879,695 L 878,695 L 875,698 L 874,698 L 872,700 L 871,700 L 868,703 L 867,703 L 865,705 L 864,705 L 862,707 L 861,707 L 860,708 L 859,708 L 857,710 L 856,710 L 855,711 L 854,711 L 852,713 L 851,713 L 850,714 L 849,714 L 848,715 L 847,715 L 846,716 L 845,716 L 844,717 L 843,717 L 842,718 L 841,718 L 840,719 L 839,719 L 838,720 L 837,720 L 836,721 L 835,721 L 834,722 L 833,722 L 832,723 L 831,723 L 830,724 L 829,724 L 828,725 L 826,725 L 825,726 L 824,726 L 823,727 L 821,727 L 820,728 L 819,728 L 818,729 L 816,729 L 815,730 L 813,730 L 812,731 L 810,731 L 809,732 L 807,732 L 806,733 L 804,733 L 803,734 L 801,734 L 800,735 L 797,735 L 796,736 L 793,736 L 792,737 L 789,737 L 788,738 L 784,738 L 783,739 L 779,739 L 778,740 L 773,740 L 772,741 L 766,741 L 765,742 L 758,742 L 757,743 L 747,743 L 746,744 L 726,744 L 725,743 L 713,743 L 712,742 L 705,742 L 704,741 L 698,741 L 697,740 L 692,740 L 691,739 L 687,739 L 686,738 L 683,738 L 682,737 L 678,737 L 677,736 L 674,736 L 673,735 L 670,735 L 669,734 L 667,734 L 666,733 L 664,733 L 663,732 L 661,732 L 660,731 L 658,731 L 657,730 L 655,730 L 654,729 L 652,729 L 651,728 L 649,728 L 648,727 L 647,727 L 646,726 L 645,726 L 644,725 L 642,725 L 641,724 L 640,724 L 639,723 L 637,723 L 635,721 L 633,721 L 632,720 L 631,720 L 630,719 L 629,719 L 628,718 L 627,718 L 626,717 L 625,717 L 624,716 L 623,716 L 621,714 L 620,714 L 619,713 L 618,713 L 616,711 L 615,711 L 614,710 L 613,710 L 612,709 L 611,709 L 609,707 L 608,707 L 606,705 L 605,705 L 603,703 L 602,703 L 600,701 L 599,701 L 597,699 L 596,699 L 593,696 L 592,696 L 589,693 L 588,693 L 584,689 L 583,689 L 578,684 L 577,684 L 552,659 L 552,658 L 547,653 L 547,652 L 543,648 L 543,647 L 540,644 L 540,643 L 538,641 L 538,640 L 535,637 L 535,636 L 534,635 L 534,634 L 531,631 L 531,630 L 529,628 L 529,627 L 528,626 L 528,625 L 527,624 L 527,623 L 525,621 L 525,620 L 524,619 L 524,618 L 523,617 L 523,616 L 521,614 L 521,613 L 520,612 L 520,611 L 519,610 L 519,609 L 518,608 L 518,607 L 517,606 L 517,605 L 516,604 L 516,603 L 515,602 L 515,600 L 514,599 L 514,598 L 513,597 L 513,596 L 512,595 L 512,593 L 511,592 L 511,591 L 510,590 L 510,588 L 509,587 L 509,586 L 508,585 L 508,583 L 507,582 L 507,580 L 506,579 L 506,577 L 505,576 L 505,574 L 504,573 L 504,571 L 503,570 L 503,567 L 502,566 L 502,563 L 501,562 L 501,560 L 500,559 L 500,555 L 499,554 L 499,551 L 498,550 L 498,547 L 500,545 L 502,545 L 503,544 L 505,544 L 506,543 L 508,543 L 509,542 L 510,542 L 511,541 L 513,541 L 514,540 L 515,541 L 515,545 L 516,546 L 516,549 L 517,550 L 517,553 L 518,554 L 518,557 L 519,558 L 519,561 L 520,562 L 520,564 L 521,565 L 521,567 L 522,568 L 522,570 L 523,571 L 523,573 L 524,574 L 524,576 L 525,577 L 525,579 L 526,580 L 526,582 L 527,583 L 527,584 L 528,585 L 528,586 L 529,587 L 529,589 L 530,590 L 530,591 L 531,592 L 531,593 L 532,594 L 532,595 L 533,596 L 533,598 L 534,599 L 534,600 L 535,601 L 535,602 L 536,603 L 536,604 L 537,605 L 537,606 L 539,608 L 539,609 L 540,610 L 540,611 L 541,612 L 541,613 L 542,614 L 542,615 L 544,617 L 544,618 L 546,620 L 546,621 L 547,622 L 547,623 L 549,625 L 549,626 L 552,629 L 552,630 L 554,632 L 554,633 L 557,636 L 557,637 L 560,640 L 560,641 L 564,645 L 564,646 L 589,671 L 590,671 L 595,676 L 596,676 L 599,679 L 600,679 L 603,682 L 604,682 L 607,685 L 608,685 L 610,687 L 611,687 L 613,689 L 614,689 L 616,691 L 617,691 L 618,692 L 619,692 L 621,694 L 622,694 L 623,695 L 624,695 L 626,697 L 627,697 L 628,698 L 629,698 L 630,699 L 631,699 L 632,700 L 633,700 L 634,701 L 635,701 L 637,703 L 638,703 L 639,704 L 641,704 L 642,705 L 643,705 L 644,706 L 645,706 L 646,707 L 647,707 L 648,708 L 649,708 L 650,709 L 652,709 L 653,710 L 654,710 L 655,711 L 657,711 L 658,712 L 660,712 L 661,713 L 663,713 L 664,714 L 666,714 L 667,715 L 669,715 L 670,716 L 672,716 L 673,717 L 676,717 L 677,718 L 679,718 L 680,719 L 683,719 L 684,720 L 688,720 L 689,721 L 693,721 L 694,722 L 699,722 L 700,723 L 706,723 L 707,724 L 715,724 L 716,725 L 731,725 L 732,726 L 740,726 L 741,725 L 755,725 L 756,724 L 763,724 L 764,723 L 770,723 L 771,722 L 776,722 L 777,721 L 780,721 L 781,720 L 785,720 L 786,719 L 789,719 L 790,718 L 793,718 L 794,717 L 796,717 L 797,716 L 800,716 L 801,715 L 803,715 L 804,714 L 806,714 L 807,713 L 809,713 L 810,712 L 811,712 L 812,711 L 814,711 L 815,710 L 817,710 L 818,709 L 819,709 L 820,708 L 821,708 L 822,707 L 824,707 L 825,706 L 826,706 L 827,705 L 828,705 L 829,704 L 830,704 L 831,703 L 832,703 L 833,702 L 834,702 L 835,701 L 836,701 L 837,700 L 838,700 L 839,699 L 840,699 L 842,697 L 843,697 L 844,696 L 845,696 L 846,695 L 847,695 L 849,693 L 850,693 L 852,691 L 853,691 L 854,690 L 855,690 L 857,688 L 858,688 L 860,686 L 861,686 L 864,683 L 865,683 L 868,680 L 869,680 L 872,677 L 873,677 L 877,673 L 878,673 L 878,672 L 872,666 L 870,668 L 869,668 L 866,671 L 865,671 L 861,675 L 860,675 L 858,677 L 857,677 L 854,680 L 853,680 L 851,682 L 850,682 L 848,684 L 847,684 L 846,685 L 845,685 L 843,687 L 842,687 L 841,688 L 840,688 L 838,690 L 837,690 L 836,691 L 835,691 L 834,692 L 833,692 L 832,693 L 831,693 L 830,694 L 829,694 L 828,695 L 827,695 L 826,696 L 825,696 L 824,697 L 823,697 L 822,698 L 821,698 L 820,699 L 819,699 L 818,700 L 816,700 L 815,701 L 814,701 L 813,702 L 811,702 L 810,703 L 809,703 L 808,704 L 806,704 L 805,705 L 803,705 L 802,706 L 800,706 L 799,707 L 797,707 L 796,708 L 793,708 L 792,709 L 790,709 L 789,710 L 786,710 L 785,711 L 781,711 L 780,712 L 777,712 L 776,713 L 772,713 L 771,714 L 766,714 L 765,715 L 759,715 L 758,716 L 747,716 L 746,717 L 724,717 L 723,716 L 711,716 L 710,715 L 703,715 L 702,714 L 698,714 L 697,713 L 693,713 L 692,712 L 688,712 L 687,711 L 684,711 L 683,710 L 680,710 L 679,709 L 677,709 L 676,708 L 673,708 L 672,707 L 670,707 L 669,706 L 667,706 L 666,705 L 665,705 L 664,704 L 662,704 L 661,703 L 659,703 L 658,702 L 657,702 L 656,701 L 654,701 L 653,700 L 652,700 L 651,699 L 649,699 L 648,698 L 647,698 L 646,697 L 645,697 L 644,696 L 643,696 L 642,695 L 641,695 L 640,694 L 639,694 L 638,693 L 637,693 L 636,692 L 635,692 L 633,690 L 632,690 L 631,689 L 630,689 L 629,688 L 628,688 L 626,686 L 625,686 L 624,685 L 623,685 L 621,683 L 620,683 L 618,681 L 617,681 L 615,679 L 614,679 L 612,677 L 611,677 L 608,674 L 607,674 L 604,671 L 603,671 L 599,667 L 598,667 L 592,661 L 591,661 L 575,645 L 575,644 L 569,638 L 569,637 L 565,633 L 565,632 L 562,629 L 562,628 L 559,625 L 559,624 L 557,622 L 557,621 L 555,619 L 555,618 L 553,616 L 553,615 L 552,614 L 552,613 L 550,611 L 550,610 L 548,608 L 548,607 L 547,606 L 547,605 L 546,604 L 546,603 L 545,602 L 545,601 L 544,600 L 544,599 L 543,598 L 543,597 L 542,596 L 542,595 L 541,594 L 541,593 L 540,592 L 540,591 L 539,590 L 539,589 L 538,588 L 538,586 L 537,585 L 537,584 L 536,583 L 536,582 L 535,581 L 535,579 L 534,578 L 534,577 L 533,576 L 533,574 L 532,573 L 532,571 L 531,570 L 531,568 L 530,567 L 530,565 L 529,564 L 529,562 L 528,561 L 528,558 L 527,557 L 527,555 L 526,554 L 526,551 L 525,550 L 525,547 L 524,546 L 524,542 L 523,541 L 523,537 L 524,536 L 525,536 L 526,535 L 527,535 L 528,534 L 530,534 L 531,533 L 532,533 L 533,532 L 534,532 L 535,531 L 537,531 L 538,530 L 539,530 L 540,529 L 541,529 L 542,528 L 544,528 L 545,527 L 546,527 L 547,526 L 548,526 L 549,525 L 550,525 L 551,524 L 553,524 L 554,523 L 555,523 L 556,522 L 557,522 L 558,521 L 559,521 L 560,520 L 561,520 L 562,519 L 563,519 L 564,518 L 565,518 L 566,517 L 567,517 L 568,516 L 570,516 L 571,515 L 572,515 L 573,514 L 574,514 L 575,513 L 576,513 L 577,512 L 578,512 L 580,510 L 581,510 L 582,509 L 584,509 L 586,507 L 587,507 L 588,506 L 589,506 L 590,505 L 591,505 L 592,504 L 594,504 L 595,503 L 596,503 L 597,502 L 598,502 L 600,500 L 601,500 L 602,499 L 604,499 L 605,498 L 606,498 L 607,497 L 608,497 L 609,496 L 610,496 L 611,495 L 612,495 L 613,494 L 614,494 L 615,493 L 616,493 L 616,465 L 615,465 L 614,466 L 613,466 L 612,467 L 611,467 L 610,468 L 609,468 L 608,469 L 607,469 L 606,470 L 605,470 L 604,471 L 603,471 L 601,473 L 600,473 L 599,474 L 598,474 L 597,475 L 596,475 L 595,476 L 594,476 L 593,477 L 592,477 L 591,478 L 590,478 L 589,479 L 588,479 L 587,480 L 586,480 L 585,481 L 584,481 L 583,482 L 582,482 L 581,483 L 580,483 L 579,484 L 578,484 L 577,485 L 576,485 L 575,486 L 574,486 L 573,487 L 572,487 L 571,488 L 570,488 L 569,489 L 568,489 L 567,490 L 566,490 L 565,491 L 564,491 L 562,493 L 561,493 L 560,494 L 558,494 L 557,495 L 556,495 L 555,496 L 554,496 L 553,497 L 552,497 L 551,498 L 550,498 L 549,499 L 548,499 L 547,500 L 546,500 L 545,501 L 543,501 L 542,502 L 541,502 L 540,503 L 539,503 L 538,504 L 537,504 L 536,505 L 535,505 L 534,506 L 532,506 L 531,507 L 530,507 L 529,508 L 528,508 L 527,509 L 526,509 L 525,510 L 523,510 L 521,512 L 520,512 L 519,511 L 519,489 L 520,488 L 520,474 L 521,473 L 521,465 L 522,464 L 522,459 L 523,458 L 523,453 L 524,452 L 524,448 L 525,447 L 525,444 L 526,443 L 526,439 L 527,438 L 527,436 L 528,435 L 528,432 L 529,431 L 529,428 L 530,427 L 530,425 L 531,424 L 531,422 L 532,421 L 532,420 L 533,419 L 533,417 L 534,416 L 534,414 L 535,413 L 535,412 L 536,411 L 536,409 L 537,408 L 537,407 L 538,406 L 538,405 L 539,404 L 539,402 L 540,401 L 540,400 L 541,399 L 541,398 L 542,397 L 542,396 L 543,395 L 543,394 L 544,393 L 544,392 L 545,391 L 545,390 L 547,388 L 547,387 L 548,386 L 548,385 L 549,384 L 549,383 L 551,381 L 551,380 L 552,379 L 552,378 L 554,376 L 554,375 L 556,373 L 556,372 L 558,370 L 558,369 L 560,367 L 560,366 L 563,363 L 563,362 L 565,360 L 565,359 L 570,354 L 570,353 L 576,347 L 576,346 L 591,331 L 592,331 L 599,324 L 600,324 L 604,320 L 605,320 L 608,317 L 609,317 L 612,314 L 613,314 L 615,312 L 616,312 L 618,310 L 619,310 L 621,308 L 622,308 L 624,306 L 625,306 L 626,305 L 627,305 L 629,303 L 630,303 L 631,302 L 632,302 L 633,301 L 634,301 L 635,300 L 636,300 L 637,299 L 638,299 L 640,297 L 642,297 L 644,295 L 646,295 L 647,294 L 648,294 L 649,293 L 650,293 L 651,292 L 653,292 L 654,291 L 655,291 L 656,290 L 658,290 L 659,289 L 660,289 L 661,288 L 663,288 L 664,287 L 666,287 L 667,286 L 669,286 L 670,285 L 672,285 L 673,284 L 676,284 L 677,283 L 679,283 L 680,282 L 683,282 L 684,281 L 687,281 L 688,280 L 692,280 L 693,279 L 697,279 L 698,278 L 702,278 L 703,277 L 710,277 L 711,276 L 719,276 L 720,275 L 752,275 L 753,276 L 761,276 L 762,277 L 768,277 L 769,278 L 774,278 L 775,279 L 779,279 L 780,280 L 783,280 L 784,281 L 788,281 L 789,282 L 791,282 L 792,283 L 795,283 L 796,284 L 798,284 L 799,285 L 801,285 L 802,286 L 804,286 L 805,287 L 807,287 L 808,288 L 810,288 L 811,289 L 812,289 L 813,290 L 815,290 L 816,291 L 817,291 L 818,292 L 819,292 L 820,293 L 822,293 L 823,294 L 824,294 L 825,295 L 826,295 L 827,296 L 828,296 L 829,297 L 830,297 L 831,298 L 832,298 L 833,299 L 834,299 L 835,300 L 836,300 L 838,302 L 839,302 L 840,303 L 841,303 L 842,304 L 843,304 L 845,306 L 846,306 L 847,307 L 848,307 L 850,309 L 851,309 L 853,311 L 854,311 L 856,313 L 857,313 L 859,315 L 860,315 L 863,318 L 864,318 L 867,321 L 868,321 L 872,325 L 873,325 L 879,331 L 880,331 L 886,337 L 892,331 L 892,330 L 891,329 L 890,329 L 882,321 L 881,321 L 876,316 L 875,316 L 871,312 L 870,312 L 868,310 L 867,310 L 864,307 L 863,307 L 861,305 L 860,305 L 858,303 L 857,303 L 855,301 L 854,301 L 852,299 L 851,299 L 850,298 L 849,298 L 847,296 L 846,296 L 845,295 L 844,295 L 843,294 L 842,294 L 841,293 L 840,293 L 838,291 L 837,291 L 836,290 L 835,290 L 834,289 L 833,289 L 832,288 L 831,288 L 830,287 L 829,287 L 828,286 L 826,286 L 825,285 L 824,285 L 823,284 L 822,284 L 821,283 L 819,283 L 818,282 L 817,282 L 816,281 L 814,281 L 813,280 L 812,280 L 811,279 L 809,279 L 808,278 L 806,278 L 805,277 L 803,277 L 802,276 L 800,276 L 799,275 L 796,275 L 795,274 L 792,274 L 791,273 L 788,273 L 787,272 L 784,272 L 783,271 L 779,271 L 778,270 L 774,270 L 773,269 L 768,269 L 767,268 L 759,268 L 758,267 L 747,267 L 746,266 L 724,266 L 723,267 L 713,267 L 712,268 L 705,268 L 704,269 L 698,269 L 697,270 L 693,270 L 692,271 L 688,271 L 687,272 L 683,272 L 682,273 L 679,273 L 678,274 L 676,274 L 675,275 L 672,275 L 671,276 L 669,276 L 668,277 L 666,277 L 665,278 L 663,278 L 662,279 L 660,279 L 659,280 L 657,280 L 656,281 L 655,281 L 654,282 L 652,282 L 651,283 L 650,283 L 649,284 L 647,284 L 646,285 L 645,285 L 644,286 L 643,286 L 642,287 L 641,287 L 640,288 L 639,288 L 638,289 L 637,289 L 636,290 L 635,290 L 634,291 L 633,291 L 632,292 L 631,292 L 630,293 L 629,293 L 628,294 L 627,294 L 626,295 L 625,295 L 623,297 L 622,297 L 621,298 L 620,298 L 618,300 L 617,300 L 615,302 L 614,302 L 612,304 L 611,304 L 609,306 L 608,306 L 606,308 L 605,308 L 602,311 L 601,311 L 598,314 L 597,314 L 592,319 L 591,319 L 582,328 L 581,328 L 579,330 L 579,331 L 578,332 L 577,332 L 574,335 L 574,336 L 565,345 L 565,346 L 560,351 L 560,352 L 557,355 L 557,356 L 554,359 L 554,360 L 552,362 L 552,363 L 550,365 L 550,366 L 548,368 L 548,369 L 546,371 L 546,372 L 545,373 L 545,374 L 543,376 L 543,377 L 542,378 L 542,379 L 540,381 L 540,382 L 539,383 L 539,384 L 538,385 L 538,386 L 537,387 L 537,388 L 536,389 L 536,390 L 535,391 L 535,392 L 534,393 L 534,394 L 533,395 L 533,396 L 532,397 L 532,398 L 531,399 L 531,400 L 530,401 L 530,402 L 529,403 L 529,405 L 528,406 L 528,407 L 527,408 L 527,410 L 526,411 L 526,412 L 525,413 L 525,415 L 524,416 L 524,418 L 523,419 L 523,421 L 522,422 L 522,424 L 521,425 L 521,427 L 520,428 L 520,431 L 519,432 L 519,434 L 518,435 L 518,438 L 517,439 L 517,443 L 516,444 L 516,448 L 515,449 L 515,452 L 514,453 L 514,459 L 513,460 L 513,468 L 512,469 L 512,478 L 511,479 L 511,516 L 510,517 L 508,517 L 507,518 L 506,518 L 505,519 L 503,519 L 502,520 L 500,520 L 499,521 L 496,521 L 495,522 L 494,521 L 494,515 L 493,514 L 493,477 L 494,476 L 494,466 L 495,465 L 495,458 L 496,457 L 496,453 L 497,452 L 497,447 L 498,446 L 498,442 L 499,441 L 499,438 L 500,437 L 500,433 L 501,432 L 501,429 L 502,428 L 502,426 L 503,425 L 503,423 L 504,422 L 504,420 L 505,419 L 505,417 L 506,416 L 506,414 L 507,413 L 507,411 L 508,410 L 508,408 L 509,407 L 509,405 L 510,404 L 510,403 L 511,402 L 511,400 L 512,399 L 512,398 L 513,397 L 513,395 L 514,394 L 514,393 L 515,392 L 515,391 L 516,390 L 516,389 L 517,388 L 517,387 L 518,386 L 518,385 L 519,384 L 519,383 L 520,382 L 520,381 L 521,380 L 521,379 L 522,378 L 522,377 L 523,376 L 523,375 L 524,374 L 524,373 L 526,371 L 526,370 L 527,369 L 527,368 L 529,366 L 529,365 L 530,364 L 530,363 L 532,361 L 532,360 L 534,358 L 534,357 L 536,355 L 536,354 L 538,352 L 538,351 L 541,348 L 541,347 L 544,344 L 544,343 L 548,339 L 548,338 L 551,335 L 551,334 L 560,325 L 560,324 L 572,312 L 573,312 L 580,305 L 581,305 L 586,300 L 587,300 L 591,296 L 592,296 L 595,293 L 596,293 L 598,291 L 599,291 L 601,289 L 602,289 L 604,287 L 605,287 L 607,285 L 608,285 L 610,283 L 611,283 L 612,282 L 613,282 L 615,280 L 616,280 L 617,279 L 618,279 L 619,278 L 620,278 L 621,277 L 622,277 L 623,276 L 624,276 L 625,275 L 626,275 L 627,274 L 628,274 L 630,272 L 632,272 L 633,271 L 634,271 L 635,270 L 636,270 L 637,269 L 638,269 L 639,268 L 640,268 L 641,267 L 643,267 L 644,266 L 645,266 L 646,265 L 648,265 L 649,264 L 650,264 L 651,263 L 653,263 L 654,262 L 656,262 L 657,261 L 659,261 L 660,260 L 662,260 L 663,259 L 665,259 L 666,258 L 669,258 L 670,257 L 673,257 L 674,256 L 677,256 L 678,255 L 681,255 L 682,254 L 685,254 L 686,253 L 690,253 L 691,252 L 696,252 L 697,251 L 703,251 L 704,250 L 711,250 L 712,249 L 724,249 L 725,248 L 749,248 L 750,249 L 760,249 L 761,250 L 768,250 L 769,251 L 774,251 L 775,252 L 780,252 L 781,253 L 785,253 L 786,254 L 789,254 L 790,255 L 794,255 L 795,256 L 797,256 L 798,257 L 801,257 L 802,258 L 804,258 L 805,259 L 808,259 L 809,260 L 811,260 L 812,261 L 814,261 L 815,262 L 816,262 L 817,263 L 819,263 L 820,264 L 821,264 L 822,265 L 824,265 L 825,266 L 826,266 L 827,267 L 829,267 L 830,268 L 831,268 L 832,269 L 833,269 L 834,270 L 835,270 L 836,271 L 837,271 L 838,272 L 840,272 L 841,273 L 842,273 L 843,274 L 844,274 L 846,276 L 847,276 L 848,277 L 849,277 L 850,278 L 851,278 L 852,279 L 853,279 L 855,281 L 856,281 L 857,282 L 858,282 L 859,283 L 860,283 L 862,285 L 863,285 L 864,286 L 865,286 L 867,288 L 868,288 L 871,291 L 872,291 L 874,293 L 875,293 L 877,295 L 878,295 L 881,298 L 882,298 L 885,301 L 886,301 L 890,305 L 891,305 L 897,311 L 898,311 L 905,318 L 906,318 L 910,314 L 911,314 L 911,313 L 912,312 L 913,312 L 925,300 L 926,300 L 939,287 L 940,287 L 948,279 L 931,262 L 930,262 L 925,257 L 924,257 L 920,253 L 919,253 L 916,250 L 915,250 L 912,247 L 911,247 L 908,244 L 907,244 L 905,242 L 904,242 L 902,240 L 901,240 L 898,237 L 897,237 L 896,236 L 895,236 L 893,234 L 892,234 L 890,232 L 889,232 L 888,231 L 887,231 L 885,229 L 884,229 L 883,228 L 882,228 L 881,227 L 880,227 L 879,226 L 878,226 L 876,224 L 875,224 L 874,223 L 873,223 L 872,222 L 871,222 L 870,221 L 869,221 L 868,220 L 867,220 L 866,219 L 865,219 L 864,218 L 863,218 L 862,217 L 861,217 L 860,216 L 859,216 L 858,215 L 856,215 L 855,214 L 854,214 L 853,213 L 852,213 L 851,212 L 849,212 L 848,211 L 847,211 L 846,210 L 845,210 L 844,209 L 842,209 L 841,208 L 839,208 L 838,207 L 837,207 L 836,206 L 834,206 L 833,205 L 831,205 L 830,204 L 828,204 L 827,203 L 825,203 L 824,202 L 822,202 L 821,201 L 819,201 L 818,200 L 815,200 L 814,199 L 812,199 L 811,198 L 808,198 L 807,197 L 804,197 L 803,196 L 799,196 L 798,195 L 795,195 L 794,194 L 790,194 L 789,193 L 785,193 L 784,192 L 779,192 L 778,191 L 773,191 L 772,190 L 765,190 L 764,189 L 755,189 L 754,188 L 712,188 L 711,189 L 700,189 L 699,190 L 692,190 L 691,191 L 685,191 L 684,192 L 679,192 L 678,193 L 674,193 L 673,194 L 669,194 L 668,195 L 665,195 L 664,196 L 660,196 L 659,197 L 656,197 L 655,198 L 653,198 L 652,199 L 649,199 L 648,200 L 646,200 L 645,201 L 643,201 L 642,202 L 640,202 L 639,203 L 636,203 L 635,204 L 633,204 L 632,205 L 631,205 L 630,206 L 628,206 L 627,207 L 625,207 L 624,208 L 623,208 L 622,209 L 620,209 L 619,210 L 618,210 L 617,211 L 616,211 L 615,212 L 613,212 L 612,213 L 611,213 L 610,214 L 609,214 L 608,215 L 606,215 L 605,216 L 604,216 L 603,217 L 602,217 L 601,218 L 600,218 L 599,219 L 598,219 L 597,220 L 596,220 L 595,221 L 594,221 L 592,223 L 591,223 L 590,224 L 589,224 L 588,225 L 587,225 L 585,227 L 584,227 L 583,228 L 582,228 L 580,230 L 579,230 L 578,231 L 577,231 L 575,233 L 574,233 L 572,235 L 571,235 L 569,237 L 568,237 L 566,239 L 565,239 L 563,241 L 562,241 L 559,244 L 558,244 L 555,247 L 554,247 L 549,252 L 548,252 L 543,257 L 542,257 L 530,269 L 529,269 L 527,271 L 527,272 L 513,286 L 513,287 L 507,293 L 507,294 L 503,298 L 503,299 L 500,302 L 500,303 L 497,306 L 497,307 L 494,310 L 494,311 L 491,314 L 491,315 L 489,317 L 489,318 L 487,320 L 487,321 L 485,323 L 485,324 L 483,326 L 483,327 L 482,328 L 482,329 L 480,331 L 480,332 L 479,333 L 479,334 L 477,336 L 477,337 L 476,338 L 476,339 L 475,340 L 475,341 L 474,342 L 474,343 L 472,345 L 472,346 L 471,347 L 471,348 L 470,349 L 470,350 L 469,351 L 469,352 L 468,353 L 468,354 L 467,355 L 467,356 L 466,357 L 466,358 L 465,359 L 465,360 L 464,361 L 464,362 L 463,363 L 463,364 L 462,365 L 462,367 L 461,368 L 461,369 L 460,370 L 460,371 L 459,372 L 459,374 L 458,375 L 458,376 L 457,377 L 457,379 L 456,380 L 456,382 L 455,383 L 455,384 L 454,385 L 454,387 L 453,388 L 453,390 L 452,391 L 452,393 L 451,394 L 451,396 L 450,397 L 450,399 L 449,400 L 449,402 L 448,403 L 448,405 L 447,406 L 447,409 L 446,410 L 446,412 L 445,413 L 445,416 L 444,417 L 444,420 L 443,421 L 443,425 L 442,426 L 442,429 L 441,430 L 441,434 L 440,435 L 440,439 L 439,440 L 439,445 L 438,446 L 438,451 L 437,452 L 437,458 L 436,459 L 436,468 L 435,469 L 435,484 L 434,485 L 434,506 L 435,507 L 435,522 L 436,523 L 436,531 L 437,532 L 437,538 L 438,539 L 438,540 L 437,541 L 435,541 L 434,542 L 432,542 L 431,543 L 429,543 L 428,544 L 426,544 L 425,545 L 423,545 L 422,546 L 419,546 L 418,547 L 416,547 L 415,548 L 412,548 L 411,549 L 409,549 L 408,548 L 408,545 L 407,544 L 407,537 L 406,536 L 406,529 L 405,528 L 405,515 L 404,514 L 404,473 L 405,472 L 405,462 L 406,461 L 406,454 L 407,453 L 407,446 L 408,445 L 408,439 L 409,438 L 409,434 L 410,433 L 410,429 L 411,428 L 411,424 L 412,423 L 412,420 L 413,419 L 413,416 L 414,415 L 414,411 L 415,410 L 415,407 L 416,406 L 416,404 L 417,403 L 417,400 L 418,399 L 418,397 L 419,396 L 419,394 L 420,393 L 420,391 L 421,390 L 421,388 L 422,387 L 422,385 L 423,384 L 423,382 L 424,381 L 424,379 L 425,378 L 425,376 L 426,375 L 426,374 L 427,373 L 427,371 L 428,370 L 428,369 L 429,368 L 429,366 L 430,365 L 430,364 L 431,363 L 431,361 L 432,360 L 432,359 L 433,358 L 433,357 L 434,356 L 434,354 L 435,353 L 435,352 L 436,351 L 436,350 L 437,349 L 437,348 L 438,347 L 438,346 L 439,345 L 439,344 L 440,343 L 440,342 L 441,341 L 441,340 L 442,339 L 442,338 L 443,337 L 443,336 L 444,335 L 444,334 L 445,333 L 445,332 L 446,331 L 446,330 L 448,328 L 448,327 L 449,326 L 449,325 L 450,324 L 450,323 L 452,321 L 452,320 L 453,319 L 453,318 L 455,316 L 455,315 L 456,314 L 456,313 L 458,311 L 458,310 L 460,308 L 460,307 L 462,305 L 462,304 L 464,302 L 464,301 L 466,299 L 466,298 L 468,296 L 468,295 L 471,292 L 471,291 L 474,288 L 474,287 L 478,283 L 478,282 L 481,279 L 481,278 L 487,272 L 487,271 L 494,264 L 494,263 L 518,239 L 519,239 L 526,232 L 527,232 L 531,228 L 532,228 L 536,224 L 537,224 L 540,221 L 541,221 L 544,218 L 545,218 L 547,216 L 548,216 L 550,214 L 551,214 L 554,211 L 555,211 L 557,209 L 558,209 L 559,208 L 560,208 L 562,206 L 563,206 L 565,204 L 566,204 L 568,202 L 569,202 L 570,201 L 571,201 L 572,200 L 573,200 L 575,198 L 576,198 L 577,197 L 578,197 L 579,196 L 580,196 L 581,195 L 582,195 L 584,193 L 585,193 L 586,192 L 587,192 L 588,191 L 589,191 L 590,190 L 591,190 L 592,189 L 593,189 L 594,188 L 595,188 L 596,187 L 598,187 L 599,186 L 600,186 L 601,185 L 602,185 L 603,184 L 604,184 L 605,183 L 607,183 L 608,182 L 609,182 L 610,181 L 611,181 L 612,180 L 614,180 L 615,179 L 616,179 L 617,178 L 619,178 L 620,177 L 622,177 L 623,176 L 625,176 L 626,175 L 628,175 L 629,174 L 631,174 L 632,173 L 634,173 L 635,172 L 637,172 L 638,171 L 640,171 L 641,170 L 644,170 L 645,169 L 647,169 L 648,168 L 651,168 L 652,167 L 655,167 L 656,166 L 660,166 L 661,165 L 665,165 L 666,164 L 670,164 L 671,163 L 676,163 L 677,162 L 682,162 L 683,161 L 689,161 L 690,160 L 698,160 L 699,159 L 710,159 L 711,158 L 755,158 L 756,159 L 767,159 L 768,160 L 775,160 L 776,161 L 783,161 L 784,162 L 789,162 L 790,163 L 794,163 L 795,164 L 799,164 L 800,165 L 804,165 L 805,166 L 808,166 L 809,167 L 812,167 L 813,168 L 816,168 L 817,169 L 820,169 L 821,170 L 824,170 L 825,171 L 827,171 L 828,172 L 830,172 L 831,173 L 834,173 L 835,174 L 836,174 L 837,175 L 839,175 L 840,176 L 842,176 L 843,177 L 845,177 L 846,178 L 848,178 L 849,179 L 850,179 L 851,180 L 853,180 L 854,181 L 855,181 L 856,182 L 857,182 L 858,183 L 860,183 L 861,184 L 862,184 L 863,185 L 864,185 L 865,186 L 867,186 L 868,187 L 869,187 L 870,188 L 871,188 L 872,189 L 873,189 L 874,190 L 875,190 L 876,191 L 877,191 L 878,192 L 879,192 L 880,193 L 881,193 L 882,194 L 883,194 L 884,195 L 885,195 L 886,196 L 887,196 L 888,197 L 889,197 L 890,198 L 891,198 L 893,200 L 894,200 L 895,201 L 896,201 L 897,202 L 898,202 L 900,204 L 901,204 L 902,205 L 903,205 L 904,206 L 905,206 L 907,208 L 908,208 L 910,210 L 911,210 L 913,212 L 914,212 L 916,214 L 917,214 L 919,216 L 920,216 L 922,218 L 923,218 L 926,221 L 927,221 L 931,225 L 932,225 L 935,228 L 936,228 L 940,232 L 941,232 L 947,238 L 948,238 L 957,247 L 958,247 L 970,259 L 970,260 L 979,269 L 1040,269 L 1040,268 L 1038,266 L 1038,265 L 1037,264 L 1037,263 L 1039,261 L 1039,260 L 1041,258 L 1041,257 L 1043,255 L 1043,254 L 1045,252 L 1045,251 L 1047,249 L 1047,248 L 1049,246 L 1049,245 L 1051,243 L 1051,242 L 1054,239 L 1054,238 L 1056,236 L 1056,235 L 1059,232 L 1059,231 L 1061,229 L 1061,228 L 1064,225 L 1064,224 L 1067,221 L 1067,220 L 1069,218 L 1069,217 L 1070,216 L 1070,211 L 1069,210 L 1069,209 L 1063,203 L 1063,202 L 1055,194 L 1055,193 L 1047,185 L 1047,184 L 1041,178 L 1041,177 L 1030,166 L 1024,166 L 1022,168 L 1021,168 L 1019,170 L 1018,170 L 1015,173 L 1014,173 L 1012,175 L 1011,175 L 1008,178 L 1007,178 L 1004,181 L 1003,181 L 1000,184 L 999,184 L 996,187 L 995,187 L 992,190 L 991,190 L 988,193 L 987,193 L 984,196 L 983,196 L 980,199 L 979,199 L 976,196 L 975,196 L 970,191 L 969,191 L 965,187 L 964,187 L 961,184 L 960,184 L 957,181 L 956,181 L 953,178 L 952,178 L 949,175 L 948,175 L 945,172 L 944,172 L 942,170 L 941,170 L 938,167 L 937,167 L 935,165 L 934,165 L 932,163 L 931,163 L 929,161 L 928,161 L 926,159 L 925,159 L 924,158 L 924,157 L 925,156 L 925,152 L 926,151 L 926,147 L 927,146 L 927,142 L 928,141 L 928,138 L 929,137 L 929,133 L 930,132 L 930,128 L 931,127 L 931,124 L 932,123 L 932,119 L 933,118 L 933,115 L 934,114 L 934,111 L 935,110 L 935,107 L 936,106 L 936,98 L 933,95 L 932,95 L 930,93 L 929,93 L 928,92 L 927,92 L 926,91 L 924,91 L 923,90 L 922,90 L 921,89 L 920,89 L 919,88 L 918,88 L 917,87 L 915,87 L 914,86 L 913,86 L 912,85 L 910,85 L 909,84 L 908,84 L 907,83 L 906,83 L 905,82 L 903,82 L 902,81 L 901,81 L 900,80 L 898,80 L 897,79 L 896,79 L 895,78 L 894,78 L 893,77 L 891,77 L 890,76 L 889,76 L 888,75 L 887,75 L 886,74 L 884,74 L 883,73 L 882,73 L 881,72 L 875,72 L 872,75 L 872,76 L 871,77 L 871,78 L 869,80 L 869,81 L 868,82 L 868,83 L 866,85 L 866,86 L 865,87 L 865,88 L 863,90 L 863,91 L 862,92 L 862,93 L 861,94 L 861,95 L 859,97 L 859,98 L 858,99 L 858,100 L 856,102 L 856,103 L 855,104 L 855,105 L 853,107 L 853,108 L 852,109 L 852,110 L 850,112 L 850,113 L 849,114 L 849,115 L 847,117 L 847,118 L 846,119 L 846,120 L 845,121 L 845,122 L 844,123 L 842,123 L 841,122 L 838,122 L 837,121 L 835,121 L 834,120 L 831,120 L 830,119 L 827,119 L 826,118 L 823,118 L 822,117 L 820,117 L 819,116 L 815,116 L 814,115 L 811,115 L 810,114 L 807,114 L 806,113 L 803,113 L 802,112 L 798,112 L 797,111 L 793,111 L 792,110 L 788,110 L 787,109 L 782,109 L 781,108 L 779,108 L 778,107 L 778,102 L 777,101 L 777,96 L 776,95 L 776,89 L 775,88 L 775,83 L 774,82 L 774,76 L 773,75 L 773,70 L 772,69 L 772,63 L 771,62 L 771,56 L 770,55 L 770,52 L 766,48 L 763,48 L 762,47 L 751,47 L 750,46 Z" fill="black" stroke="none"/>
</svg>