<svg width="554" height="297" viewBox="0 0 554 297" fill="none" xmlns="http://www.w3.org/2000/svg">
<g clip-path="url(#clip0_2218_2242)">
<rect width="554" height="297" rx="12" fill="#1D1D1E"/>
<g filter="url(#filter0_f_2218_2242)">
<path d="M94.6834 446.714C38.9784 446.714 257.184 272.423 244.486 139.578C213.264 -187.051 940.508 -28.7915 758.957 62.3902C605.662 139.381 209.648 446.714 94.6834 446.714Z" fill="url(#paint0_linear_2218_2242)" fill-opacity="0.1"/>
</g>
<g filter="url(#filter1_f_2218_2242)">
<path d="M-335.741 624.006C-391.446 624.006 -173.241 449.715 -185.939 316.87C-217.161 -9.75891 481.34 177.617 299.789 268.798C146.493 345.789 -220.776 624.006 -335.741 624.006Z" fill="url(#paint1_linear_2218_2242)" fill-opacity="0.1"/>
</g>
<g filter="url(#filter2_f_2218_2242)">
<path d="M-19.8786 234.81C-75.5836 234.81 166.432 89.3245 153.734 -43.5203C122.512 -370.149 848.003 -223.593 666.451 -132.411C513.156 -55.4205 95.0864 234.81 -19.8786 234.81Z" fill="url(#paint2_linear_2218_2242)" fill-opacity="0.02"/>
</g>
<path d="M330.414 168.735C327.579 168.735 325.024 168.175 322.749 167.055C320.474 165.935 318.672 164.308 317.342 162.173C316.047 160.038 315.399 157.465 315.399 154.455C315.399 151.375 316.029 148.645 317.289 146.265C318.549 143.85 320.299 141.995 322.539 140.7C324.779 139.37 327.352 138.705 330.257 138.705C334.737 138.705 338.149 140.14 340.494 143.01C342.874 145.88 344.029 149.818 343.959 154.823H322.119C322.224 157.728 323.047 159.968 324.587 161.543C326.162 163.118 328.104 163.905 330.414 163.905C332.549 163.905 334.334 163.328 335.769 162.173C337.239 161.018 338.289 159.565 338.919 157.815L344.327 161.228C342.647 163.713 340.617 165.585 338.237 166.845C335.857 168.105 333.249 168.735 330.414 168.735ZM337.239 150.308C336.924 148.208 336.172 146.528 334.982 145.268C333.827 144.008 332.252 143.378 330.257 143.378C328.332 143.378 326.687 143.99 325.322 145.215C323.992 146.44 323.064 148.138 322.539 150.308H337.239ZM318.339 129.098H326.792L334.247 136.868H328.787L318.339 129.098Z" fill="white"/>
<path d="M283.675 139.44H290.185V147.158C291.2 144.603 292.775 142.555 294.91 141.015C297.045 139.475 299.39 138.705 301.945 138.705C305.2 138.705 307.668 139.633 309.348 141.488C311.063 143.343 311.92 145.705 311.92 148.575V161.175C311.92 163.415 312.025 165.69 312.235 168H305.463V149.73C305.463 145.775 303.52 143.798 299.635 143.798C298.13 143.798 296.643 144.27 295.173 145.215C293.703 146.16 292.495 147.49 291.55 149.205C290.64 150.92 290.185 152.88 290.185 155.085V168H283.675V139.44Z" fill="white"/>
<path d="M271.754 139.44H278.264V161.175C278.264 163.87 278.369 166.145 278.579 168H271.754V139.44ZM271.544 129.623H278.474V135.66H271.544V129.623Z" fill="white"/>
<path d="M252.917 168.735C249.837 168.735 247.16 168.07 244.885 166.74C242.645 165.41 240.912 163.608 239.687 161.333C238.497 159.023 237.902 156.468 237.902 153.668C237.902 150.868 238.497 148.33 239.687 146.055C240.912 143.78 242.645 141.995 244.885 140.7C247.16 139.37 249.837 138.705 252.917 138.705C255.962 138.705 258.622 139.37 260.897 140.7C263.207 142.03 264.975 143.833 266.2 146.108C267.425 148.383 268.037 150.903 268.037 153.668C268.037 156.468 267.425 159.023 266.2 161.333C264.975 163.608 263.225 165.41 260.95 166.74C258.675 168.07 255.997 168.735 252.917 168.735ZM252.917 163.905C255.437 163.905 257.432 162.943 258.902 161.018C260.372 159.093 261.107 156.643 261.107 153.668C261.107 150.693 260.372 148.26 258.902 146.37C257.432 144.48 255.437 143.535 252.917 143.535C250.432 143.535 248.455 144.498 246.985 146.423C245.515 148.313 244.78 150.728 244.78 153.668C244.78 156.678 245.515 159.145 246.985 161.07C248.455 162.96 250.432 163.905 252.917 163.905Z" fill="white"/>
<path d="M211.203 130.463H217.713V152.933L227.688 143.588C229.018 142.468 230.225 141.085 231.31 139.44H238.608L227.005 150.675L239.868 168H232.15L222.28 155.138L217.713 159.128V168H211.203V130.463Z" fill="white"/>
</g>
<defs>
<filter id="filter0_f_2218_2242" x="-42.4365" y="-185.112" width="958.539" height="759.826" filterUnits="userSpaceOnUse" color-interpolation-filters="sRGB">
<feFlood flood-opacity="0" result="BackgroundImageFix"/>
<feBlend mode="normal" in="SourceGraphic" in2="BackgroundImageFix" result="shape"/>
<feGaussianBlur stdDeviation="64" result="effect1_foregroundBlur_2218_2242"/>
</filter>
<filter id="filter1_f_2218_2242" x="-408.861" y="68.1021" width="802.817" height="619.904" filterUnits="userSpaceOnUse" color-interpolation-filters="sRGB">
<feFlood flood-opacity="0" result="BackgroundImageFix"/>
<feBlend mode="normal" in="SourceGraphic" in2="BackgroundImageFix" result="shape"/>
<feGaussianBlur stdDeviation="32" result="effect1_foregroundBlur_2218_2242"/>
</filter>
<filter id="filter2_f_2218_2242" x="-60.2197" y="-277.37" width="787.876" height="544.181" filterUnits="userSpaceOnUse" color-interpolation-filters="sRGB">
<feFlood flood-opacity="0" result="BackgroundImageFix"/>
<feBlend mode="normal" in="SourceGraphic" in2="BackgroundImageFix" result="shape"/>
<feGaussianBlur stdDeviation="16" result="effect1_foregroundBlur_2218_2242"/>
</filter>
<linearGradient id="paint0_linear_2218_2242" x1="483.383" y1="19.6285" x2="173.362" y2="368.848" gradientUnits="userSpaceOnUse">
<stop stop-color="#7649FF"/>
<stop offset="1" stop-color="#DCDCFF"/>
</linearGradient>
<linearGradient id="paint1_linear_2218_2242" x1="52.9584" y1="196.92" x2="-257.063" y2="546.14" gradientUnits="userSpaceOnUse">
<stop stop-color="#8888FF"/>
<stop offset="1" stop-color="#DCDCFF"/>
</linearGradient>
<linearGradient id="paint2_linear_2218_2242" x1="390.877" y1="-175.173" x2="80.8559" y2="174.047" gradientUnits="userSpaceOnUse">
<stop stop-color="#8888FF"/>
<stop offset="1" stop-color="#DCDCFF"/>
</linearGradient>
<clipPath id="clip0_2218_2242">
<rect width="554" height="297" rx="12" fill="white"/>
</clipPath>
</defs>
</svg>
